<?xml version="1.0" encoding="UTF-8" standalone="no"?>
<svg
  width="256mm"
  height="176mm"
  viewBox="0 0 256 176"
  version="1.1"
  id="svg1"
  inkscape:version="1.4 (e7c3feb100, 2024-10-09)"
  xmlns:inkscape="http://www.inkscape.org/namespaces/inkscape"
  xmlns:sodipodi="http://sodipodi.sourceforge.net/DTD/sodipodi-0.dtd"
  xmlns:xlink="http://www.w3.org/1999/xlink"
  xmlns="http://www.w3.org/2000/svg"
  xmlns:svg="http://www.w3.org/2000/svg"
  xmlns:rdf="http://www.w3.org/1999/02/22-rdf-syntax-ns#"
  xmlns:cc="http://creativecommons.org/ns#"
  xmlns:dc="http://purl.org/dc/elements/1.1/">
 <title
   id="title1">copyparty_logo</title>
 <defs
   id="defs1">
  <linearGradient
    inkscape:collect="always"
    id="linearGradient1">
   <stop
     style="stop-color:#ffcc55;stop-opacity:1"
     offset="0"
     id="stop1" />
   <stop
     style="stop-color:#ffcc00;stop-opacity:1"
     offset="0.2"
     id="stop2" />
   <stop
     style="stop-color:#ff8800;stop-opacity:1"
     offset="1"
     id="stop3" />
  </linearGradient>
  <linearGradient
    inkscape:collect="always"
    xlink:href="#linearGradient1"
    id="linearGradient2"
    x1="12"
    y1="12"
    x2="12"
    y2="122"
    gradientUnits="userSpaceOnUse" />
 </defs>
 <metadata
   id="metadata5">
  <rdf:RDF>
   <cc:Work
     rdf:about="">
    <dc:format>image/svg+xml</dc:format>
    <dc:type
      rdf:resource="http://purl.org/dc/dcmitype/StillImage" />
    <dc:title>copyparty_logo</dc:title>
    <dc:source>github.com/9001/copyparty</dc:source>
   </cc:Work>
  </rdf:RDF>
 </metadata>
 <g
   inkscape:groupmode="layer"
   id="layer1"
   inkscape:label="kassett">
  <rect
    style="fill:#333333"
    id="rect1"
    width="256"
    height="175"
    x="0"
    y="0"
    rx="12"
    ry="12" />
  <rect
    style="fill:url(#linearGradient2)"
    id="rect2"
    width="232"
    height="110"
    x="12"
    y="12"
    rx="8"
    ry="8" />
  <rect
    style="fill:#333333"
    id="rect3"
    width="148"
    height="44"
    x="54"
    y="62"
    rx="22"
    ry="22" />
  <circle
    style="fill:#cccccc"
    id="circle1"
    cx="77"
    cy="84"
    r="15" />
  <circle
    style="fill:#cccccc"
    id="circle2"
    cx="179"
    cy="84"
    r="15" />
  <path
    style="fill:#737373"
    d="m 41,176 8.5,-32.7 c 1.5,-5.2 4.8,-6.5 10.2,-6.7 51.2,-0.8 85.3,-0.8 136.5,0 5.5,0.17 8.5,1.5 10.2,6.7 L 215,176 Z"
    id="path1"
    sodipodi:nodetypes="ccccccc" />
 </g>
 <g
   inkscape:groupmode="layer"
   id="layer3"
   inkscape:label="tekst"
   style="display:none">
  <text
    xml:space="preserve"
    style="font-size:38.8056px;line-height:1.25;font-family:Akbar;-inkscape-font-specification:Akbar;letter-spacing:3.70417px;word-spacing:0px;fill:#333333"
    x="47.153069"
    y="55.548954"
    id="text1"><tspan
     sodipodi:role="line"
     id="tspan1"
     x="47.153069"
     y="55.548954"
     style="-inkscape-font-specification:Akbar"
     rotate="0 0">copyparty</tspan></text>
 </g>
 <g
   inkscape:groupmode="layer"
   id="layer4"
   inkscape:label="stensatt">
  <path
    d="m 54.39,43.64 q -0.73,0.79 -4.04,1.96 -3.07,1.11 -3.75,1.11 -2.82,0 -4.36,-1.79 -1.49,-1.71 -1.49,-4.58 0,-3.92 3.21,-6.52 2.81,-2.3 6.23,-2.3 0.34,0 0.79,0.63 0.46,0.6 0.46,0.99 0,1.76 -1.87,2.3 -1.17,0.34 -3.45,0.99 -1.88,0.99 -1.88,3.76 0,2.73 2.48,2.73 0.72,0 0.72,0 0.46,0 1.23,-0.14 0.94,-0.19 2.47,-0.63 1.54,-0.46 1.82,-0.46 0.34,0 1.49,0.51 z"
    style="fill:#333333"
    id="path11" />
  <path
    d="m 74.95,38.6 q 0,3.58 -3.16,5.93 -2.73,1.96 -5.86,1.96 -2.9,0 -5.12,-2.21 -2.13,-2.22 -2.13,-5.12 0,-3.08 2.68,-5.67 2.73,-2.56 5.8,-2.56 2.99,0 5.38,2.35 2.41,2.36 2.41,5.34 z m -2.9,0.14 q 0,-1.92 -1.49,-3.16 -1.45,-1.28 -3.42,-1.28 -0.1,0 -1.36,1.37 -1.23,1.32 -2.08,1.32 -0.52,0 -0.69,-0.26 -0.99,1.96 -0.99,2.56 0,1.92 1.82,2.9 1.37,0.77 3.07,0.77 1.71,0 3.21,-0.94 1.92,-1.19 1.92,-3.27 z"
    style="fill:#333333"
    id="path12" />
  <path
    d="m 96.46,40.14 q 0,2.39 -1.63,3.75 -1.53,1.28 -4.01,1.28 -0.59,0 -2.3,-0.34 -1.62,-0.34 -2.22,-0.34 -1.79,0 -1.79,2.25 0,0.73 0.2,2.22 0.17,1.49 0.17,2.22 0,1.62 -0.66,2.41 -1.23,0 -2.56,-0.72 -1.25,-8.11 -1.25,-10.24 0,-3.12 1.5,-6.91 2.02,-5.17 5.5,-5.17 3.16,0 6.23,3.5 2.82,3.28 2.82,6.1 z m -3.25,0.17 q -0.51,-1.88 -2.22,-3.76 -1.96,-2.13 -3.66,-2.13 -1.11,0 -1.99,1.88 -0.77,1.53 -0.77,2.78 0,0.4 0.32,1.06 0.37,0.68 0.73,0.68 0.94,0 2.73,0.26 1.79,0.25 2.73,0.25 0.26,0 1.11,-0.34 0.85,-0.4 1.11,-0.63 z"
    style="fill:#333333"
    id="path13" />
  <path
    d="m 113.7,34.33 q -1.8,3.5 -2.7,5.98 -0.1,0.25 -1.4,3.84 -0.3,1.16 -0.9,3.58 -0.4,2.42 -0.8,3.59 -0.9,2.41 -2,2.25 -1.2,-0.17 -1.3,-1.37 0,-0.17 0,-0.42 0,-0.14 0.2,-1.28 0.9,-4.3 0.9,-5.5 0,-0.46 -0.1,-0.63 -1.2,-2.08 -3.5,-6.32 -2.32,-4.24 -2.1,-6.57 1.3,-1.16 1.8,-1.16 0.4,0 1,0.52 0.5,0.51 0.6,0.93 0.7,5.29 4.1,9.48 0.9,-1.54 1.6,-3.45 0.4,-1.2 1.4,-3.54 1.6,-3.81 2.9,-3.81 0.1,0 0.3,0.1 0.8,0.25 1.1,2.39 z"
    style="fill:#333333"
    id="path14" />
  <path
    d="m 134.6,41.16 q 0,2.39 -1.6,3.76 -1.6,1.28 -4,1.28 -0.6,0 -2.3,-0.35 -1.7,-0.34 -2.3,-0.34 -1.7,0 -1.7,2.26 0,0.72 0.2,2.21 0.2,1.5 0.2,2.22 0,1.62 -0.6,2.42 -1.3,0 -2.6,-0.73 -1.3,-8.1 -1.3,-10.19 0,-3.12 1.6,-6.92 1.9,-5.16 5.4,-5.16 3.2,0 6.2,3.5 2.8,3.28 2.8,6.09 z m -3.2,0.17 q -0.6,-1.88 -2.3,-3.75 -1.9,-2.14 -3.6,-2.14 -1.1,0 -2,1.88 -0.8,1.54 -0.8,2.78 0,0.4 0.4,1.06 0.3,0.68 0.7,0.68 0.9,0 2.7,0.26 1.8,0.26 2.7,0.26 0.3,0 1.1,-0.35 0.9,-0.4 1.1,-0.63 z"
    style="fill:#333333"
    id="path15" />
  <path
    d="m 155.5,45.68 q 0,0.77 -0.5,1.28 -0.5,0.52 -1.2,0.52 -1.4,0 -2.6,-0.77 -1.2,-0.8 -1.8,-1.97 -0.5,-0.1 -1.2,0.73 -0.8,0.99 -1,1.06 -1,0.46 -3.3,0.46 -1.9,0 -3.3,-2.08 -1.3,-1.82 -1.3,-3.42 0,-2.9 2.9,-5.46 2.7,-2.47 5.7,-2.47 0.8,0 1.5,0.51 0.6,0.51 0.6,1.23 0,0.46 -0.3,0.94 2.1,0.77 2.1,2.41 0,0.3 -0.1,0.9 -0.1,0.6 -0.1,0.89 0,0.35 0.1,0.52 0.4,1.11 2.1,2.9 1.6,1.62 1.6,1.87 z m -6.9,-8.62 q -0.3,0 -0.9,-0.1 -0.7,-0.14 -1,-0.14 -1.1,0 -2.7,1.66 -1.6,1.65 -1.6,2.81 0,0.69 0.6,1.54 0.7,1.11 1.8,1.11 2.3,0 3,-2.47 0.5,-2.22 0.9,-4.41 z"
    style="fill:#333333"
    id="path16" />
  <path
    d="m 174.1,36.38 q -0.3,0.34 -1.3,0.34 -0.7,0 -2.1,-0.25 -1.5,-0.26 -2.1,-0.26 -4,0 -4.7,5.89 -0.3,2.64 -0.4,2.82 -0.3,0.85 -1.4,1.96 h -1 q -0.6,-1.03 -1.1,-3.5 -0.5,-2.36 -0.5,-3.64 0,-0.99 0.1,-1.28 0.2,-0.47 0.9,-0.47 0.2,0 0.5,0.26 0.3,0.26 0.3,0.26 1.6,-3.02 2.7,-3.93 1.5,-1.45 4.3,-1.45 1.2,0 3.1,0.77 2.4,0.99 2.8,2.39 z"
    style="fill:#333333"
    id="path17" />
  <path
    d="m 196,31.91 q 0.3,0.68 0.3,1.23 0,1.59 -2.1,1.59 -0.8,0 -2.9,-0.43 -2.2,-0.46 -2.9,-0.46 -1.1,0 -1.3,0.1 -0.4,0.18 -0.4,1.03 0,1.88 0.6,5.89 0.5,5 1.3,5.23 -0.3,0.3 -0.3,0.94 -1,0.59 -2.2,0.59 -1.2,0 -1.8,-3.32 -0.1,-1.17 -0.4,-6.63 -0.1,-3.92 -0.7,-4.69 -0.2,-0.4 -3.6,-0.3 -0.9,0 -1.4,0.1 -0.4,0 -0.3,0 -0.6,0 -1,-0.6 -0.4,-1.11 -0.4,-1.2 0,-1.22 3.5,-1.7 1.4,-0.14 4,-0.43 0,-0.72 -0.1,-2.18 0,-1.5 0,-2.22 0,-3.71 1.8,-3.71 0.4,0 1,0.51 0.5,0.51 0.5,0.94 v 6.74 q 0.9,1.02 4.2,1.45 3.4,0.43 4.6,1.59 z"
    style="fill:#333333"
    id="path18" />
  <path
    d="m 214.6,34.5 q -1.7,3.5 -2.8,5.98 -0.1,0.25 -1.3,3.84 -0.4,1.16 -0.8,3.58 -0.4,2.42 -0.9,3.59 -0.8,2.41 -2,2.25 -1.2,-0.17 -1.3,-1.37 -0.1,-0.17 -0.1,-0.42 0,-0.14 0.3,-1.28 0.9,-4.3 0.9,-5.5 0,-0.46 -0.1,-0.63 -1.2,-2.08 -3.5,-6.31 -2.3,-4.25 -2,-6.58 1.2,-1.16 1.8,-1.16 0.3,0 0.8,0.52 0.5,0.51 0.6,0.93 0.8,5.3 4.2,9.48 0.9,-1.54 1.6,-3.45 0.5,-1.2 1.4,-3.54 1.5,-3.81 2.9,-3.81 0.2,0 0.3,0.1 0.7,0.25 1.1,2.39 z"
    style="fill:#333333"
    id="path19" />
 </g>
 <g
   inkscape:groupmode="layer"
   id="layer5"
   inkscape:label="tagger">
  <g
    id="g1">
   <path
     id="path4"
     style="fill:#333333"
     d="m 94.2,71.8 -8,4.6 2,3.5 8,-4.7 z m -28.4,16.3 -8,4.7 2,3.4 8,-4.6 z"
     sodipodi:nodetypes="cccccccccc" />
   <path
     id="path5"
     style="fill:#333333"
     d="m 75,63 v 9.2 h 4 V 63 Z m 0,32.8 v 9.2 h 4 v -9.2 z"
     sodipodi:nodetypes="cccccccccc" />
   <path
     id="path6"
     style="fill:#333333"
     d="m 96.2,92.8 -8,-4.7 -2,3.5 8,4.6 z m -28.4,-16.4 -8,-4.6 -2,3.4 8,4.7 z"
     sodipodi:nodetypes="cccccccccc" />
  </g>
  <g
    id="g2">
   <path
     id="path7"
     style="fill:#333333"
     d="m 200,82 h -9 v 4 h 9 z m -33,0 h -9 v 4 h 9 z"
     sodipodi:nodetypes="cccccccccc" />
   <path
     id="path8"
     style="fill:#333333"
     d="m 191,101 -4,-7.8 -4,2 5,7.8 z m -16,-28.2 -5,-8 -3,2 4,8 z"
     sodipodi:nodetypes="cccccccccc" />
   <path
     id="path9"
     style="fill:#333333"
     d="m 170,103 5,-7.8 -4,-2 -4,7.8 z m 17,-28.2 4,-8 -3,-2 -5,8 z"
     sodipodi:nodetypes="cccccccccc" />
  </g>
 </g>
</svg>
