<?xml version="1.0" encoding="UTF-8" standalone="no"?>
<svg
  width="205mm"
  height="205mm"
  viewBox="0 0 205 205"
  version="1.1"
  id="svg1"
  inkscape:version="1.3.2 (091e20ef0f, 2023-11-25)"
  sodipodi:docname="logo-sq.svg"
  inkscape:export-filename="logo-sq.png"
  inkscape:export-xdpi="126.9"
  inkscape:export-ydpi="126.9"
  xmlns:inkscape="http://www.inkscape.org/namespaces/inkscape"
  xmlns:sodipodi="http://sodipodi.sourceforge.net/DTD/sodipodi-0.dtd"
  xmlns:xlink="http://www.w3.org/1999/xlink"
  xmlns="http://www.w3.org/2000/svg"
  xmlns:svg="http://www.w3.org/2000/svg"
  xmlns:rdf="http://www.w3.org/1999/02/22-rdf-syntax-ns#"
  xmlns:cc="http://creativecommons.org/ns#"
  xmlns:dc="http://purl.org/dc/elements/1.1/">
 <sodipodi:namedview
   id="namedview1"
   pagecolor="#ffffff"
   bordercolor="#000000"
   borderopacity="0.25"
   inkscape:showpageshadow="2"
   inkscape:pageopacity="0.0"
   inkscape:pagecheckerboard="0"
   inkscape:deskcolor="#d1d1d1"
   inkscape:document-units="mm"
   inkscape:zoom="0.7165"
   inkscape:cx="367.1"
   inkscape:cy="434.1"
   inkscape:window-width="1920"
   inkscape:window-height="1022"
   inkscape:window-x="0"
   inkscape:window-y="0"
   inkscape:window-maximized="1"
   inkscape:current-layer="layer5" />
 <title
   id="title1">copyparty_logo</title>
 <defs
   id="defs1">
  <linearGradient
    inkscape:collect="always"
    id="linearGradient1">
   <stop
     style="stop-color:#ffcc55;stop-opacity:1"
     offset="0"
     id="stop1" />
   <stop
     style="stop-color:#ffcc00;stop-opacity:1"
     offset="0.2"
     id="stop2" />
   <stop
     style="stop-color:#ff8800;stop-opacity:1"
     offset="1"
     id="stop3" />
  </linearGradient>
  <linearGradient
    inkscape:collect="always"
    xlink:href="#linearGradient1"
    id="linearGradient2"
    x1="15"
    y1="15"
    x2="15"
    y2="143"
    gradientUnits="userSpaceOnUse"
    gradientTransform="matrix(0.7149,0,0,1,41.29,0)" />
 </defs>
 <metadata
   id="metadata5">
  <rdf:RDF>
   <cc:Work
     rdf:about="">
    <dc:format>image/svg+xml</dc:format>
    <dc:type
      rdf:resource="http://purl.org/dc/dcmitype/StillImage" />
    <dc:title>copyparty_logo</dc:title>
    <dc:source>github.com/9001/copyparty</dc:source>
   </cc:Work>
  </rdf:RDF>
 </metadata>
 <g
   inkscape:groupmode="layer"
   id="layer1"
   inkscape:label="kassett"
   transform="translate(-46.02)">
  <rect
    style="fill:#333333;stroke-width:1.00023"
    id="rect1"
    width="205"
    height="205"
    x="46.02"
    y="0"
    rx="12.01"
    ry="12" />
  <rect
    style="fill:url(#linearGradient2);stroke-width:0.999736"
    id="rect2"
    width="193"
    height="128"
    x="52.02"
    y="15"
    rx="7.995"
    ry="8" />
  <rect
    style="fill:#333333;stroke-width:0.999983"
    id="rect3"
    width="142"
    height="52"
    x="77.52"
    y="77.83"
    rx="26"
    ry="26" />
  <circle
    style="fill:#cccccc"
    id="circle1"
    cx="104.5"
    cy="103.6"
    r="18" />
  <circle
    style="fill:#cccccc"
    id="circle2"
    cx="192.5"
    cy="103.6"
    r="18" />
  <path
    style="fill:#737373;stroke-width:0.999995px"
    d="m 71.53,205 7.55,-39 c 1.35,-6.2 4.23,-7.8 9.05,-8 45.27,-1 75.47,-1 120.77,0 4.9,0.2 7.5,1.8 9.1,8 l 7.5,39 z"
    id="path1"
    sodipodi:nodetypes="ccccccc" />
 </g>
 <g
   inkscape:groupmode="layer"
   id="layer3"
   inkscape:label="tekst"
   style="display:none"
   transform="translate(-46.02)">
  <text
    xml:space="preserve"
    style="font-size:38.8056px;line-height:1.25;font-family:Akbar;-inkscape-font-specification:Akbar;letter-spacing:3.70417px;word-spacing:0px;fill:#333333"
    x="47.15"
    y="55.55"
    id="text1"><tspan
     sodipodi:role="line"
     id="tspan1"
     x="47.15"
     y="55.55"
     style="-inkscape-font-specification:Akbar"
     rotate="0 0">copyparty</tspan></text>
 </g>
 <g
   inkscape:groupmode="layer"
   id="layer4"
   inkscape:label="stensatt"
   transform="translate(-46.02)">
  <path
    d="m 119.3,58.82 q -2.2,2.24 -11.8,5.54 -8.83,3.12 -10.89,3.12 -8.1,0 -12.54,-5.04 -4.3,-4.81 -4.3,-12.9 0,-11.06 9.24,-18.36 8.16,-6.5 17.99,-6.5 1.2,0 2.4,1.78 1.3,1.67 1.3,2.78 0,4.96 -5.4,6.5 -3.4,0.95 -10.06,2.78 -5.41,2.81 -5.41,10.58 0,7.71 7.14,7.71 2.1,0 2.1,0 1.43,0 3.53,-0.39 2.8,-0.56 7.2,-1.78 4.4,-1.31 5.3,-1.31 0.8,0 4.3,1.45 z"
    style="fill:#333333;stroke-width:0.999757"
    id="path11" />
  <path
    d="m 169.6,42.52 q 0,5.02 -3.8,7.89 -3.5,2.68 -9.3,2.68 -1.4,0 -5.3,-0.71 -3.7,-0.73 -5.1,-0.73 -3.9,0 -3.9,4.74 0,1.53 0.3,4.66 0.4,3.13 0.4,4.66 0,3.4 -1.5,5.07 -2.5,0 -5.5,-1.52 -2.6,-17.03 -2.6,-21.52 0,-6.53 3.2,-14.5 4.4,-10.85 12.1,-10.85 7.3,0 14.5,7.34 6.5,6.89 6.5,12.8 z m -7.5,0.36 Q 160.9,38.94 157,35 q -4.5,-4.49 -8.5,-4.49 -2.7,0 -4.5,3.94 -1.7,3.23 -1.7,5.85 0,0.84 0.7,2.22 0.7,1.43 1.5,1.43 2.2,0 6.4,0.54 4,0.55 6.2,0.55 0.5,0 2.6,-0.73 2,-0.84 2.6,-1.32 z"
    style="fill:#333333;stroke-width:0.999656"
    id="path13" />
  <path
    d="m 218.3,43.94 q 0,5.01 -3.6,7.89 -3.3,2.67 -8.6,2.67 -1.4,0 -5.1,-0.7 -3.5,-0.73 -4.9,-0.73 -3.7,0 -3.7,4.74 0,1.51 0.4,4.65 0.4,3.13 0.4,4.67 0,3.4 -1.4,5.07 -2.7,0 -5.6,-1.53 -2.7,-17.02 -2.7,-21.42 0,-6.53 3.4,-14.5 4.3,-10.85 11.9,-10.85 6.8,0 13.3,7.34 6.2,6.89 6.2,12.8 z m -7.2,0.36 q -1.1,-3.94 -4.7,-7.88 -4.3,-4.49 -8,-4.49 -2.5,0 -4.4,3.95 -1.6,3.21 -1.6,5.84 0,0.84 0.8,2.22 0.6,1.43 1.5,1.43 2,0 5.9,0.55 3.8,0.53 5.9,0.53 0.6,0 2.4,-0.72 1.9,-0.84 2.5,-1.33 z"
    style="fill:#333333;stroke-width:0.999656"
    id="path15" />
 </g>
 <g
   inkscape:groupmode="layer"
   id="layer5"
   inkscape:label="tagger"
   transform="translate(-46.02)"
   style="display:none">
  <g
    id="g1"
    transform="translate(13.52,4.761)">
   <path
     id="path4"
     style="fill:#333333"
     d="m 111.4,83.33 -9.5,5.5 2.5,4.33 9.5,-5.5 z m -33.78,19.47 -9.52,5.5 2.5,4.4 9.52,-5.5 z"
     sodipodi:nodetypes="cccccccccc" />
   <path
     id="path5"
     style="fill:#333333"
     d="m 88.5,73 v 11 h 5 V 73 Z m 0,39 v 11 h 5 v -11 z"
     sodipodi:nodetypes="cccccccccc" />
   <path
     id="path6"
     style="fill:#333333"
     d="m 68.1,87.67 9.53,5.5 2.5,-4.33 -9.53,-5.5 z m 33.8,19.53 9.5,5.5 2.5,-4.4 -9.5,-5.5 z"
     sodipodi:nodetypes="cccccccccc" />
  </g>
  <g
    id="g2"
    transform="rotate(30,132.7,290.2)">
   <path
     id="path7"
     style="fill:#333333"
     d="m 111.4,83.33 -9.5,5.5 2.5,4.33 9.5,-5.5 z m -33.78,19.47 -9.52,5.5 2.5,4.4 9.52,-5.5 z"
     sodipodi:nodetypes="cccccccccc" />
   <path
     id="path8"
     style="fill:#333333"
     d="m 88.5,73 v 11 h 5 V 73 Z m 0,39 v 11 h 5 v -11 z"
     sodipodi:nodetypes="cccccccccc" />
   <path
     id="path9"
     style="fill:#333333"
     d="m 68.1,87.67 9.53,5.5 2.5,-4.33 -9.53,-5.5 z m 33.8,19.53 9.5,5.5 2.5,-4.4 -9.5,-5.5 z"
     sodipodi:nodetypes="cccccccccc" />
  </g>
 </g>
</svg>
